<?xml version="1.0" standalone="no"?><!DOCTYPE svg PUBLIC "-//W3C//DTD SVG 1.1//EN" "http://www.w3.org/Graphics/SVG/1.1/DTD/svg11.dtd"><svg t="1707896036062" class="icon" viewBox="0 0 1024 1024" version="1.1" xmlns="http://www.w3.org/2000/svg" p-id="9015" xmlns:xlink="http://www.w3.org/1999/xlink" width="200" height="200"><path d="M776.258065 809.290323V82.580645H49.548387v941.419355h505.393548z" fill="#FFFFFF" p-id="9016"></path><path d="M776.258065 809.290323V82.580645H49.548387" fill="#EAEAEA" p-id="9017"></path><path d="M49.548387 0h726.709678v115.612903H49.548387z" fill="#04AF76" p-id="9018"></path><path d="M49.548387 0h726.709678v115.612903" fill="#008C61" p-id="9019"></path><path d="M249.393548 368.309677m-122.219354 0a122.219355 122.219355 0 1 0 244.438709 0 122.219355 122.219355 0 1 0-244.438709 0Z" fill="#32BA7C" p-id="9020"></path><path d="M218.012903 422.812903l62.761291 62.761291c52.851613-13.212903 90.83871-61.109677 90.838709-118.916129V363.354839l-47.896774-46.245162-105.703226 105.703226z" fill="#0AA06E" p-id="9021"></path><path d="M252.696774 396.387097c4.954839 4.954839 4.954839 14.864516 0 19.819355l-11.56129 11.56129c-4.954839 4.954839-14.864516 4.954839-19.819355 0l-49.548387-49.548387c-4.954839-4.954839-4.954839-14.864516 0-19.819355l11.56129-11.56129c4.954839-4.954839 14.864516-4.954839 19.819355 0l49.548387 49.548387z" fill="#FFFFFF" p-id="9022"></path><path d="M295.63871 310.503226c4.954839-4.954839 14.864516-4.954839 19.819355 0l11.56129 11.56129c4.954839 4.954839 4.954839 14.864516 0 19.819355l-85.883871 85.883871c-4.954839 4.954839-14.864516 4.954839-19.819355 0l-11.56129-11.56129c-4.954839-4.954839-4.954839-14.864516 0-19.819355l85.883871-85.883871z" fill="#FFFFFF" p-id="9023"></path><path d="M249.393548 730.012903m-122.219354 0a122.219355 122.219355 0 1 0 244.438709 0 122.219355 122.219355 0 1 0-244.438709 0Z" fill="#32BA7C" p-id="9024"></path><path d="M218.012903 784.516129l62.761291 62.76129c52.851613-13.212903 90.83871-61.109677 90.838709-118.916129v-3.303225l-47.896774-46.245162-105.703226 105.703226z" fill="#0AA06E" p-id="9025"></path><path d="M252.696774 756.43871c4.954839 4.954839 4.954839 14.864516 0 19.819355l-11.56129 11.56129c-4.954839 4.954839-14.864516 4.954839-19.819355 0l-49.548387-49.548387c-4.954839-4.954839-4.954839-14.864516 0-19.819355l11.56129-11.56129c4.954839-4.954839 14.864516-4.954839 19.819355 0l49.548387 49.548387z" fill="#FFFFFF" p-id="9026"></path><path d="M295.63871 670.554839c4.954839-4.954839 14.864516-4.954839 19.819355 0l11.56129 11.56129c4.954839 4.954839 4.954839 14.864516 0 19.819355l-85.883871 85.883871c-4.954839 4.954839-14.864516 4.954839-19.819355 0l-11.56129-11.56129c-4.954839-4.954839-4.954839-14.864516 0-19.819355l85.883871-85.883871z" fill="#FFFFFF" p-id="9027"></path><path d="M776.258065 809.290323H561.548387v208.103225z" fill="#C9C9C9" p-id="9028"></path><path d="M698.632258 726.709677c0 11.56129-9.909677 16.516129-21.470968 16.516129H444.283871c-11.56129 0-21.470968-4.954839-21.470968-16.516129s9.909677-16.516129 21.470968-16.516129H677.16129c11.56129 0 21.470968 4.954839 21.470968 16.516129zM698.632258 363.354839c0 11.56129-9.909677 16.516129-21.470968 16.516129H444.283871c-11.56129 0-21.470968-4.954839-21.470968-16.516129s9.909677-16.516129 21.470968-16.516129H677.16129c11.56129 0 21.470968 4.954839 21.470968 16.516129zM842.322581 165.16129v652.387097c0 36.335484 29.729032 46.245161 66.064516 46.245161s66.064516-9.909677 66.064516-46.245161V165.16129h-132.129032z" fill="#E2A750" p-id="9029"></path><path d="M891.870968 165.16129v652.387097c0 36.335484 9.909677 46.245161 24.774193 46.245161s24.774194-9.909677 24.774194-46.245161V165.16129h-49.548387z" fill="#F9D264" p-id="9030"></path><path d="M974.451613 148.645161V84.232258c0-36.335484-29.729032-46.245161-66.064516-46.245161s-66.064516 9.909677-66.064516 46.245161V148.645161h132.129032z" fill="#C61867" p-id="9031"></path><path d="M974.451613 148.645161V84.232258c0-36.335484-29.729032-46.245161-66.064516-46.245161" fill="#9E085A" p-id="9032"></path><path d="M842.322581 835.716129l66.064516 122.219355 66.064516-122.219355z" fill="#EADCA2" p-id="9033"></path><path d="M908.387097 835.716129V957.935484l66.064516-122.219355z" fill="#D1C593" p-id="9034"></path><path d="M880.309677 903.432258L908.387097 957.935484l28.077419-54.503226z" fill="#44390A" p-id="9035"></path></svg>